# xmcd
#
# Track frame offsets:
#	150
#	18317
#	36360
#	55787
#
# Disc length: 1140 seconds
#
# Revision: 3
# Processed by: cddbd v1.5.1PL0 Copyright (c) Steve Scherf et al.
# Submitted via: EasyCDDAExtractor 8.0.2.1
#
DISCID=2a047204
DTITLE=Digital Underground - No Nose Job [CD Single)
DYEAR=1990
DGENRE=Hip-Hop
TTITLE0=No Nose Job (Ultrafunk Edit)
TTITLE1=No Nose Job (Radio Edit)
TTITLE2=No Nose Job (Ultragroove Mix)
TTITLE3=Humpty Dance (City Lick Mix)
EXTD=
EXTT0=
EXTT1=
EXTT2=
EXTT3=
PLAYORDER=
